<svg width="53" height="51" viewBox="0 0 53 51" fill="none" xmlns="http://www.w3.org/2000/svg">
<rect x="1.39258" y="0.5" width="51.0455" height="49.75" rx="24.875" fill="white"/>
<rect x="1.39258" y="0.5" width="51.0455" height="49.75" rx="24.875" stroke="#191919"/>
<path fill-rule="evenodd" clip-rule="evenodd" d="M23.3333 17C23.6133 16.41 24.2173 16 24.9153 16H28.9153C29.6133 16 30.2163 16.41 30.4973 17C31.1803 17.006 31.7133 17.037 32.1893 17.223C32.7575 17.4453 33.2517 17.823 33.6153 18.313C33.9823 18.807 34.1553 19.44 34.3913 20.311L35.1333 23.033L35.4133 23.874L35.4373 23.904C36.3383 25.058 35.9093 26.774 35.0513 30.205C34.5053 32.388 34.2333 33.479 33.4193 34.115C32.6053 34.75 31.4803 34.75 29.2303 34.75H24.6003C22.3503 34.75 21.2253 34.75 20.4113 34.115C19.5973 33.479 19.3243 32.388 18.7793 30.205C17.9213 26.774 17.4923 25.058 18.3933 23.904L18.4173 23.874L18.6973 23.033L19.4393 20.311C19.6763 19.44 19.8493 18.806 20.2153 18.312C20.579 17.8224 21.0732 17.445 21.6413 17.223C22.1173 17.037 22.6493 17.005 23.3333 17ZM23.3353 18.503C22.6733 18.51 22.4073 18.535 22.1873 18.621C21.8813 18.7407 21.6151 18.9441 21.4193 19.208C21.2433 19.445 21.1393 19.776 20.8493 20.843L20.2793 22.932C21.2993 22.75 22.6933 22.75 24.5993 22.75H29.2303C31.1373 22.75 32.5303 22.75 33.5503 22.93L32.9813 20.841C32.6913 19.774 32.5873 19.443 32.4113 19.206C32.2155 18.9421 31.9494 18.7387 31.6433 18.619C31.4233 18.533 31.1573 18.508 30.4953 18.501C30.3533 18.7998 30.1295 19.0523 29.8499 19.2291C29.5702 19.406 29.2462 19.4999 28.9153 19.5H24.9153C24.5846 19.5 24.2606 19.4062 23.9809 19.2296C23.7013 19.0529 23.4774 18.8017 23.3353 18.503Z" fill="#191919"/>
</svg>
