<svg width="149" height="42" viewBox="0 0 149 42" fill="none" xmlns="http://www.w3.org/2000/svg">
<path d="M18.8305 20.0708C15.7552 22.1901 12.6799 24.3094 9.61039 26.4287C12.3632 24.0445 15.116 21.6603 17.8688 19.2703C16.7458 18.3258 15.617 17.3871 14.494 16.4426C26.9622 23.1806 39.4246 29.9129 51.8928 36.6509C47.6311 26.469 43.3637 16.2814 39.1021 6.09375C35.2666 8.73712 31.4369 11.3747 27.6014 14.0181C31.0453 17.94 34.4949 21.8618 37.9388 25.7837C29.5767 19.2184 21.2205 12.659 12.8584 6.09375C8.59105 16.2814 4.32941 26.469 0.0620117 36.6566C7.84814 32.4007 15.6285 28.1564 23.4146 23.9005C21.8885 22.622 20.3624 21.3493 18.8305 20.0708Z" fill="#D20C34"/>
<path d="M64.9551 7.875L73.0645 21.8906L81.1426 7.875H84.0957V32.875H80.8613V14.8125L73.0645 28.3125L65.2363 14.8125V32.875H62.002V7.875H64.9551ZM103.486 25.5938V23.2188C103.299 22.2083 102.799 21.2917 101.986 20.4688C100.893 19.3854 99.5801 18.8438 98.0488 18.8438C96.5072 18.8438 95.1895 19.3854 94.0957 20.4688C93.0124 21.5521 92.4707 22.8646 92.4707 24.4062C92.4707 25.9375 93.0124 27.25 94.0957 28.3438C95.1895 29.4271 96.5072 29.9688 98.0488 29.9688C99.5801 29.9688 100.893 29.4271 101.986 28.3438C102.799 27.5208 103.299 26.6042 103.486 25.5938ZM103.486 17.9219V16.7969H106.736V32.8906H103.486V30.875C101.924 32.4896 100.111 33.2969 98.0488 33.2969C95.5905 33.2969 93.4915 32.4323 91.752 30.7031C90.0228 28.9635 89.1582 26.8646 89.1582 24.4062C89.1582 21.9479 90.0228 19.8542 91.752 18.125C93.4915 16.3854 95.5905 15.5156 98.0488 15.5156C100.111 15.5156 101.924 16.3177 103.486 17.9219ZM114.689 18.9688C115.898 17.3333 117.382 16.474 119.143 16.3906V19.75C117.965 19.8125 117.028 20.1927 116.33 20.8906C115.278 21.9323 114.731 23.1719 114.689 24.6094V32.875H111.455V16.7969H114.689V18.9688ZM125.861 7.85938V32.875H122.611V7.85938H125.861ZM138.502 15.4844C140.96 15.4844 143.054 16.3542 144.783 18.0938C146.523 19.8333 147.393 21.9323 147.393 24.3906C147.393 26.849 146.523 28.9479 144.783 30.6875C143.054 32.4271 140.96 33.2969 138.502 33.2969C136.054 33.2969 133.96 32.4271 132.221 30.6875C130.481 28.9479 129.611 26.849 129.611 24.3906C129.611 21.9323 130.481 19.8333 132.221 18.0938C133.96 16.3542 136.054 15.4844 138.502 15.4844ZM138.502 18.8125C136.96 18.8125 135.643 19.3594 134.549 20.4531C133.465 21.5469 132.924 22.8594 132.924 24.3906C132.924 25.9323 133.465 27.2448 134.549 28.3281C135.643 29.4115 136.96 29.9531 138.502 29.9531C140.044 29.9531 141.356 29.4115 142.439 28.3281C143.533 27.2448 144.08 25.9323 144.08 24.3906C144.08 22.8594 143.533 21.5469 142.439 20.4531C141.356 19.3594 140.044 18.8125 138.502 18.8125Z" fill="white"/>
</svg>
