<svg width="49" height="50" viewBox="0 0 49 50" fill="none" xmlns="http://www.w3.org/2000/svg">
<g clip-path="url(#clip0_400_1692)">
<mask id="mask0_400_1692" style="mask-type:luminance" maskUnits="userSpaceOnUse" x="0" y="0" width="49" height="50">
<path d="M0.0429688 0.9375H48.1758V49.0703H0.0429688V0.9375Z" fill="white"/>
</mask>
<g mask="url(#mask0_400_1692)">
<path fill-rule="evenodd" clip-rule="evenodd" d="M48.1758 25.0039C48.1758 38.2946 37.4 49.0703 24.1094 49.0703C10.8187 49.0703 0.0429688 38.2946 0.0429688 25.0039C0.0429688 11.7132 10.8187 0.9375 24.1094 0.9375C37.4 0.9375 48.1758 11.7132 48.1758 25.0039ZM24.9718 18.7045C22.6313 19.6772 17.9524 21.6928 10.937 24.7492C9.79789 25.2025 9.20024 25.6457 9.14609 26.0789C9.05383 26.8129 9.97237 27.1017 11.2198 27.4928C11.3903 27.5469 11.5668 27.6011 11.7473 27.6612C12.9767 28.0603 14.6292 28.5276 15.4876 28.5457C16.2677 28.5617 17.1381 28.2408 18.0988 27.583C24.6529 23.1568 28.0362 20.9206 28.2488 20.8725C28.3992 20.8384 28.6078 20.7943 28.7482 20.9206C28.8886 21.045 28.8745 21.2816 28.8605 21.3458C28.7682 21.7329 25.1703 25.0801 23.3052 26.8129C22.7236 27.3524 22.3124 27.7354 22.2282 27.8237C22.0397 28.0182 21.8471 28.2047 21.6626 28.3832C20.5195 29.4823 19.6651 30.3085 21.7108 31.6563C22.6935 32.3041 23.4796 32.8395 24.2638 33.373C25.1202 33.9566 25.9745 34.5382 27.0816 35.2642C27.3624 35.4487 27.6311 35.6393 27.8938 35.8258C28.8906 36.5377 29.787 37.1755 30.8941 37.0752C31.5359 37.015 32.2017 36.4114 32.5386 34.6084C33.3348 30.3446 34.9032 21.1112 35.2662 17.3047C35.2883 16.9886 35.2748 16.6711 35.226 16.3581C35.1969 16.1052 35.0738 15.8726 34.8811 15.7063C34.5943 15.4716 34.1491 15.4215 33.9485 15.4255C33.044 15.4415 31.6562 15.9249 24.9718 18.7045Z" fill="white"/>
</g>
</g>
<defs>
<clipPath id="clip0_400_1692">
<rect width="48.1328" height="48.1328" fill="white" transform="translate(0.0429688 0.9375)"/>
</clipPath>
</defs>
</svg>
