<svg width="38" height="23" viewBox="0 0 38 23" fill="none" xmlns="http://www.w3.org/2000/svg">
<path d="M14.0426 10.578C11.8716 12.0741 9.70056 13.5702 7.53363 15.0664C9.47696 13.3832 11.4203 11.7001 13.3636 10.0129C12.5708 9.34614 11.774 8.68346 10.9812 8.01671C19.7831 12.7734 28.5809 17.526 37.3828 22.2827C34.3743 15.0948 31.3618 7.90287 28.3533 0.710938C25.6456 2.57702 22.942 4.43904 20.2344 6.30512C22.6656 9.07375 25.1008 11.8424 27.532 14.611C21.6289 9.9763 15.7298 5.34565 9.82659 0.710938C6.81403 7.90287 3.80553 15.0948 0.792969 22.2867C6.28958 19.2823 11.7821 16.286 17.2787 13.2816C16.2014 12.379 15.124 11.4805 14.0426 10.578Z" fill="#D20C34"/>
</svg>
