<svg width="51" height="51" viewBox="0 0 51 51" fill="none" xmlns="http://www.w3.org/2000/svg">
<rect x="1.41473" y="0.488949" width="49.0534" height="49.3461" rx="24.5267" fill="white"/>
<rect x="1.41473" y="0.488949" width="49.0534" height="49.3461" rx="24.5267" stroke="#191919" stroke-width="0.946649"/>
<path d="M25.9414 15.1641C26.9303 15.1641 27.897 15.4573 28.7193 16.0067C29.5415 16.5561 30.1824 17.337 30.5608 18.2506C30.9392 19.1643 31.0383 20.1696 30.8453 21.1395C30.6524 22.1094 30.1762 23.0003 29.4769 23.6996C28.7777 24.3989 27.8868 24.8751 26.9169 25.068C25.947 25.2609 24.9416 25.1619 24.028 24.7835C23.1144 24.405 22.3335 23.7642 21.7841 22.9419C21.2347 22.1197 20.9414 21.153 20.9414 20.1641L20.9464 19.9471C21.0023 18.6598 21.553 17.4438 22.4836 16.5527C23.4142 15.6616 24.6529 15.1641 25.9414 15.1641ZM27.9414 27.1641C29.2675 27.1641 30.5393 27.6908 31.4769 28.6285C32.4146 29.5662 32.9414 30.838 32.9414 32.1641V33.1641C32.9414 33.6945 32.7307 34.2032 32.3556 34.5783C31.9805 34.9533 31.4718 35.1641 30.9414 35.1641H20.9414C20.411 35.1641 19.9023 34.9533 19.5272 34.5783C19.1521 34.2032 18.9414 33.6945 18.9414 33.1641V32.1641C18.9414 30.838 19.4682 29.5662 20.4059 28.6285C21.3436 27.6908 22.6153 27.1641 23.9414 27.1641H27.9414Z" fill="#191919"/>
</svg>
